<svg xmlns="http://www.w3.org/2000/svg" width="36.563" height="36.564" viewBox="0 0 36.563 36.564">
  <g id="Group_244680" data-name="Group 244680" transform="translate(-0.273 0)">
    <path id="Path_266898" data-name="Path 266898" d="M.392,3.425,2.829,7.689a.609.609,0,0,0,.381.289l2.273.568,7.8,7.8.861-.861L6.222,7.563a.607.607,0,0,0-.283-.16L3.755,6.855,1.68,3.222,3.459,1.444,7.093,3.52,7.641,5.7a.607.607,0,0,0,.16.283l7.919,7.919.861-.861-7.8-7.8L8.216,2.976A.61.61,0,0,0,7.928,2.6L3.663.159a.609.609,0,0,0-.731.1L.5,2.693a.609.609,0,0,0-.1.732Zm25.324,8.653-13.4,13.4-.861-.861,13.4-13.4ZM9.97,25.954a.609.609,0,0,0-.522-.3H5.794a.609.609,0,0,0-.522.3L3.444,29a.609.609,0,0,0,0,.627l1.827,3.046a.609.609,0,0,0,.522.3H9.448a.609.609,0,0,0,.522-.3L11.8,29.627a.609.609,0,0,0,0-.627Zm-.867,5.8H6.138L4.677,29.313l1.462-2.437H9.1l1.462,2.437Zm0,0" transform="translate(-0.039 -0.074)" fill="#fe4d3b"/>
    <path id="Path_266899" data-name="Path 266899" d="M29.511,14.62A7.284,7.284,0,0,0,36.6,5.545a.609.609,0,0,0-1.021-.284L31.783,9.05l-3.008-1-1-3.008,3.792-3.792A.609.609,0,0,0,31.277.225,7.287,7.287,0,0,0,22.2,7.311a7.15,7.15,0,0,0,.148,1.427L9.01,22.078a7.186,7.186,0,0,0-1.427-.148,7.309,7.309,0,1,0,7.309,7.31,7.168,7.168,0,0,0-.148-1.427l3.194-3.194,1.4,1.4a.609.609,0,0,0,.861,0l.3-.3a.683.683,0,0,1,.967.965h0l-.3.3a.609.609,0,0,0,0,.861l7.266,7.266a4.916,4.916,0,1,0,6.984-6.921l-.031-.032L28.114,20.89a.609.609,0,0,0-.861,0l-.3.3a.683.683,0,0,1-.967-.965h0l.3-.3a.609.609,0,0,0,0-.861l-1.4-1.4,3.194-3.194a7.167,7.167,0,0,0,1.427.148ZM31.9,35.331a3.7,3.7,0,0,1-1.3-.236l4.757-4.757A3.694,3.694,0,0,1,31.9,35.331ZM25,19.5a1.9,1.9,0,0,0,2.68,2.676l6.836,6.842c.074.074.144.153.211.233l-5.208,5.208q-.121-.1-.233-.211l-6.841-6.841a1.9,1.9,0,0,0-2.68-2.677l-.975-.974,5.235-5.228Zm2.46-6.126L13.645,27.188a.61.61,0,0,0-.161.579,6.132,6.132,0,1,1-4.429-4.43.615.615,0,0,0,.579-.161L23.448,9.361a.609.609,0,0,0,.16-.579A6.062,6.062,0,0,1,29.857,1.23L26.643,4.444a.609.609,0,0,0-.147.623l1.218,3.655a.61.61,0,0,0,.386.385l3.655,1.218a.609.609,0,0,0,.623-.147l3.213-3.213q.011.173.011.346a6.06,6.06,0,0,1-7.563,5.9.61.61,0,0,0-.579.16h0Zm0,0" transform="translate(0 0)"/>
    <path id="Path_266900" data-name="Path 266900" d="M389.843,388.716l-.862.862-6.091-6.091.861-.862Zm0,0" transform="translate(-358.074 -358.08)"/>
  </g>
</svg>
