<svg xmlns="http://www.w3.org/2000/svg" width="43.258" height="26.468" viewBox="0 0 43.258 26.468">
  <g id="Group_244751" data-name="Group 244751" transform="translate(-679.881 -4516)">
    <path id="Path_266941" data-name="Path 266941" d="M49.934,125.8a7.169,7.169,0,0,0-1.549-3.741,4.162,4.162,0,0,0-3.641-1.592.777.777,0,0,0-.432.186,4.036,4.036,0,0,1-2.8,1.184h-.062a4.031,4.031,0,0,1-2.8-1.184.776.776,0,0,0-.432-.186,4,4,0,0,0-.5-.018,7.363,7.363,0,0,0-.513-.688,5.16,5.16,0,0,0-4.509-1.977.776.776,0,0,0-.432.186,5.5,5.5,0,0,1-3.769,1.585h-.062a5.5,5.5,0,0,1-3.769-1.585.777.777,0,0,0-.432-.186,5.161,5.161,0,0,0-4.509,1.977,7.4,7.4,0,0,0-.514.689,3.989,3.989,0,0,0-.505.017.777.777,0,0,0-.432.186,4.037,4.037,0,0,1-2.8,1.184h-.062a4.04,4.04,0,0,1-2.8-1.184.776.776,0,0,0-.432-.186,4.162,4.162,0,0,0-3.641,1.592A7.17,7.17,0,0,0,7.009,125.8c-.332,2.919,1.088,5.09,3.533,5.4a.78.78,0,0,0,.1.006h9.636a.78.78,0,0,0,.1-.006,4.316,4.316,0,0,0,.856-.2,5.458,5.458,0,0,0,.923.2.778.778,0,0,0,.1.006H34.7a.78.78,0,0,0,.1-.006,5.47,5.47,0,0,0,.917-.2,4.339,4.339,0,0,0,.853.2.781.781,0,0,0,.1.006H46.3a.78.78,0,0,0,.1-.006C48.846,130.892,50.265,128.721,49.934,125.8Zm-37.8,3.853v-2.962a.777.777,0,0,0-1.555,0v2.943c-1.761-.32-2.207-2.082-2.028-3.658.228-2,1.493-3.973,3.252-3.973h.014a5.461,5.461,0,0,0,3.637,1.39,5,5,0,0,0,2.723-.75,9.543,9.543,0,0,0-.4,1.831,7.274,7.274,0,0,0,.713,4.289,4.957,4.957,0,0,0,.625.89Zm22.511,0h-.1V125.6a.777.777,0,1,0-1.555,0v4.054H23.959V125.6a.777.777,0,1,0-1.555,0v4.054h-.1c-2.569-.356-3.221-2.813-2.972-5,.306-2.693,2.027-5.334,4.427-5.334l.1,0a6.837,6.837,0,0,0,9.232,0c2.453-.079,4.219,2.6,4.529,5.333.248,2.191-.4,4.648-2.973,5Zm11.712-.019v-2.943a.777.777,0,0,0-1.555,0v2.962H37.829a4.966,4.966,0,0,0,.625-.89,7.275,7.275,0,0,0,.713-4.289,9.539,9.539,0,0,0-.394-1.825,4.986,4.986,0,0,0,2.713.744,5.461,5.461,0,0,0,3.637-1.39h.014c1.759,0,3.024,1.968,3.252,3.973.179,1.576-.267,3.338-2.028,3.658Z" transform="translate(673.039 4411.159)" stroke="#fff" stroke-width="0.2"/>
    <path id="Path_266942" data-name="Path 266942" d="M28.927,115.368a6,6,0,1,0-6-6,6,6,0,0,0,6,6Zm0-10.45a4.448,4.448,0,1,1-4.448,4.448A4.448,4.448,0,0,1,28.927,104.918Zm13,13.7a4.821,4.821,0,1,0-4.821-4.821,4.821,4.821,0,0,0,4.821,4.821Zm0-8.088a3.267,3.267,0,1,1-3.267,3.267,3.267,3.267,0,0,1,3.267-3.267ZM15.9,118.614a4.821,4.821,0,1,0-4.821-4.821A4.821,4.821,0,0,0,15.9,118.614Zm0-8.088a3.267,3.267,0,1,1-3.267,3.267,3.267,3.267,0,0,1,3.267-3.267Z" transform="translate(672.616 4412.637)" fill="#fe4d3b"/>
  </g>
</svg>
