<svg xmlns="http://www.w3.org/2000/svg" width="39.612" height="39.39" viewBox="0 0 39.612 39.39">
  <g id="Group_244683" data-name="Group 244683" transform="translate(-0.002 -0.499)">
    <path id="Path_266904" data-name="Path 266904" d="M81.269,21.8l2.327-.148h.012a5.48,5.48,0,0,0,4.085-2.384l1.84-2.7a10.892,10.892,0,0,0,1.746-7.992,2.458,2.458,0,0,0-2.306-2.044,10.89,10.89,0,0,0-7.725,2.692l-2.459,2.15a5.481,5.481,0,0,0-1.878,4.341s0,.008,0,.012l.133,2.328a3.277,3.277,0,0,1-.911,2.455L56.919,40.254a2.792,2.792,0,0,0-.748,2.072,3.21,3.21,0,0,0,3.253,3.12q.128,0,.255-.01a2.792,2.792,0,0,0,1.971-.994L78.939,23a3.277,3.277,0,0,1,2.33-1.2Zm-3.253.453L60.729,43.693a1.616,1.616,0,0,1-1.143.559,2.028,2.028,0,0,1-2.227-1.974,1.614,1.614,0,0,1,.415-1.2L76.986,21.341a4.469,4.469,0,0,0,1.245-3.349L78.1,15.67a4.3,4.3,0,0,1,1.473-3.4l2.459-2.15a9.715,9.715,0,0,1,6.887-2.4,1.271,1.271,0,0,1,1.192,1.057A9.711,9.711,0,0,1,88.552,15.9l-1.84,2.7a4.3,4.3,0,0,1-3.2,1.87l-2.321.147a4.47,4.47,0,0,0-3.177,1.639Zm0,0" transform="translate(-51.822 -5.558)" fill="#fe4d3b"/>
    <path id="Path_266905" data-name="Path 266905" d="M38.517,34.546,25.633,22.812a.594.594,0,1,0-.8.878l12.88,11.731A1.616,1.616,0,0,1,38.2,36.6a2.028,2.028,0,0,1-2.1,2.1,1.615,1.615,0,0,1-1.172-.486l-11.48-12.6a.594.594,0,1,0-.878.8L34.052,39.017a2.792,2.792,0,0,0,2.024.871h.062a3.214,3.214,0,0,0,3.252-3.316,2.8,2.8,0,0,0-.874-2.027ZM7.166,16.134a5.5,5.5,0,0,0,3.608,1.454l2.332.007a3.275,3.275,0,0,1,2.4,1.057l1.027,1.128a.594.594,0,1,0,.878-.8l-1.029-1.129a4.468,4.468,0,0,0-3.268-1.443L10.785,16.4A4.314,4.314,0,0,1,8,15.285L1.24,7.252a.205.205,0,0,1,.3-.277l6.151,6.152a1.561,1.561,0,0,0,2.206,0l.723-.723h0l1.284-1.284h0l.723-.723a1.561,1.561,0,0,0,0-2.206L6.477,2.039a.205.205,0,0,1,.277-.3L14.788,8.5A4.312,4.312,0,0,1,15.9,11.282l.007,2.326a4.472,4.472,0,0,0,1.445,3.27l1.1,1a.594.594,0,1,0,.8-.878l-1.1-1A3.278,3.278,0,0,1,17.1,13.6l-.007-2.332s0-.009,0-.013a5.5,5.5,0,0,0-1.454-3.6.593.593,0,0,0-.054-.052L7.518.829a1.392,1.392,0,0,0-1.881,2.05l6.151,6.152a.372.372,0,0,1,0,.526l-.3.3L4.63,3a.594.594,0,1,0-.84.84L10.646,10.7l-.444.444L3.346,4.288a.594.594,0,0,0-.84.84l6.856,6.856-.3.3a.372.372,0,0,1-.526,0L2.381,6.135A1.393,1.393,0,0,0,.331,8.016L7.114,16.08A.566.566,0,0,0,7.166,16.134Zm0,0" transform="translate(0 0)"/>
  </g>
</svg>
