<svg xmlns="http://www.w3.org/2000/svg" width="43.26" height="33.166" viewBox="0 0 43.26 33.166">
  <g id="Group_244690" data-name="Group 244690" transform="translate(0 -59.733)">
    <path id="Path_266929" data-name="Path 266929" d="M2.163,80.642h.721v5.047a3.609,3.609,0,0,0,3.605,3.605,3.567,3.567,0,0,0,2.163-.74v.74a3.605,3.605,0,1,0,7.21,0V80.642H27.4v8.652a3.605,3.605,0,1,0,7.21,0v-.74a3.567,3.567,0,0,0,2.163.74,3.609,3.609,0,0,0,3.605-3.605V80.642H41.1a2.163,2.163,0,0,0,2.163-2.163V74.153A2.163,2.163,0,0,0,41.1,71.99h-.721V66.943a3.609,3.609,0,0,0-3.605-3.605,3.567,3.567,0,0,0-2.163.74v-.74a3.605,3.605,0,1,0-7.21,0V71.99H15.862V63.338a3.6,3.6,0,1,0-7.21,0v.74a3.567,3.567,0,0,0-2.163-.74,3.609,3.609,0,0,0-3.605,3.605V71.99H2.163A2.163,2.163,0,0,0,0,74.153v4.326A2.163,2.163,0,0,0,2.163,80.642ZM41.1,73.432a.721.721,0,0,1,.721.721v4.326a.721.721,0,0,1-.721.721h-.721V73.432H41.1ZM36.771,64.78a2.163,2.163,0,0,1,2.163,2.163V85.689a2.163,2.163,0,0,1-4.326,0V66.943A2.163,2.163,0,0,1,36.771,64.78ZM28.84,63.338a2.163,2.163,0,0,1,4.326,0V89.294a2.163,2.163,0,1,1-4.326,0ZM27.4,73.432V79.2H15.862V73.432Zm-17.3-10.094a2.163,2.163,0,0,1,4.326,0V89.294a2.163,2.163,0,1,1-4.326,0ZM4.326,66.943a2.163,2.163,0,0,1,4.326,0V85.689a2.163,2.163,0,0,1-4.326,0Zm-2.884,7.21a.721.721,0,0,1,.721-.721h.721V79.2H2.163a.721.721,0,0,1-.721-.721Z"/>
    <g id="Rectangle_27860" data-name="Rectangle 27860" transform="translate(14.13 71.916)" fill="none" stroke="#fe4d3b" stroke-width="1.5">
      <rect width="15" height="8.8" rx="2" stroke="none"/>
      <rect x="0.75" y="0.75" width="13.5" height="7.3" rx="1.25" fill="none"/>
    </g>
  </g>
</svg>
