<svg xmlns="http://www.w3.org/2000/svg" width="44" height="34.122" viewBox="0 0 44 34.122">
  <g id="Group_244688" data-name="Group 244688" transform="translate(-2 -6.941)">
    <path id="Path_266926" data-name="Path 266926" d="M3,32.865a6.121,6.121,0,0,1,.975.072.707.707,0,0,0,.08.016,5.467,5.467,0,0,1,1.932.8A6.987,6.987,0,0,0,10,34.914a6.913,6.913,0,0,0,3.97-1.14l.04-.022a5.056,5.056,0,0,1,2.986-.887,5.122,5.122,0,0,1,3,.886,6.944,6.944,0,0,0,4,1.163A7.04,7.04,0,0,0,28,33.752a5.055,5.055,0,0,1,2.986-.887,5.147,5.147,0,0,1,3.013.9,7,7,0,0,0,3.994,1.153,6.916,6.916,0,0,0,2.788-.52A10.11,10.11,0,0,0,42,33.752a5.269,5.269,0,0,1,3-.887,1,1,0,1,0,0-2,7.066,7.066,0,0,0-1.162.082,7.155,7.155,0,0,0-2.849,1.081,8.455,8.455,0,0,1-.99.526,4.89,4.89,0,0,1-2.006.36,5.088,5.088,0,0,1-3.019-.9,7.193,7.193,0,0,0-2.768-1.06l-8.24-12.033,10.559-5.285a3.547,3.547,0,0,0,1.256-5.3,3.608,3.608,0,0,0-4.352-1.071l-14.588,6.9a4.072,4.072,0,0,0-1.792,5.7l1.939,3.448L4.053,30.934A8.263,8.263,0,0,0,3,30.866a1,1,0,1,0,0,2Zm15.007-7.824a2.021,2.021,0,0,0,.725-2.747l-1.948-3.415a2.072,2.072,0,0,1,.913-2.9l14.586-6.9a1.536,1.536,0,0,1,2.16,1.753,1.509,1.509,0,0,1-.81,1.016L23.078,17.129a2.012,2.012,0,0,0-1.06,1.293,2.034,2.034,0,0,0,.287,1.666l7.472,10.865a7.135,7.135,0,0,0-2.791,1.075,5.054,5.054,0,0,1-3,.886,5.078,5.078,0,0,1-3.009-.9,7,7,0,0,0-3.988-1.149,6.937,6.937,0,0,0-3.979,1.15l-.046.026A5,5,0,0,1,10,32.914a5.092,5.092,0,0,1-3-.889c-.14-.082-.286-.165-.434-.248ZM45,37.012a7,7,0,0,0-4.007,1.161,5.506,5.506,0,0,1-6,0,7.493,7.493,0,0,0-8.013,0,5.087,5.087,0,0,1-2.995.888A5.077,5.077,0,0,1,21,38.173a6.987,6.987,0,0,0-4-1.161,6.994,6.994,0,0,0-4,1.161A5.082,5.082,0,0,1,10,39.061,5.082,5.082,0,0,1,7,38.173a6.991,6.991,0,0,0-4-1.161,1,1,0,1,0,0,2,5.081,5.081,0,0,1,2.993.888,6.992,6.992,0,0,0,4,1.161A6.994,6.994,0,0,0,14,39.9a5.082,5.082,0,0,1,2.994-.888,5.077,5.077,0,0,1,2.991.888,6.987,6.987,0,0,0,4,1.161A7,7,0,0,0,27.994,39.9a5.5,5.5,0,0,1,5.992,0A7.5,7.5,0,0,0,42,39.9a5.1,5.1,0,0,1,3-.888,1,1,0,0,0,0-2Z"/>
    <path id="Path_266927" data-name="Path 266927" d="M30.683,22.647A7.146,7.146,0,1,0,37.83,15.5a7.146,7.146,0,0,0-7.147,7.147ZM37.83,17.5a5.146,5.146,0,1,1-5.146,5.146A5.146,5.146,0,0,1,37.83,17.5Z" fill="#fe4d3b"/>
  </g>
</svg>
