<svg xmlns="http://www.w3.org/2000/svg" width="37.517" height="37.541" viewBox="0 0 37.517 37.541">
  <g id="Group_244681" data-name="Group 244681" transform="translate(-2.014 -2)">
    <path id="Path_266901" data-name="Path 266901" d="M3.924,26.543a.626.626,0,0,0,1.217-.292l-.722-3.008H18.2a.627.627,0,0,0,.45-.191L22.185,19.4H37.835a12.654,12.654,0,0,1-5.153,6.8.626.626,0,0,0,.688,1.045,13.872,13.872,0,0,0,5.894-8.318.627.627,0,0,0-.607-.773H32.013l-.8-3.781a.626.626,0,0,0-.612-.5H29.461l-.544-3.834A.626.626,0,0,0,28.3,9.5H18.9l-.611-3.21-.714-3.778A.626.626,0,0,0,16.958,2h-6.2a.626.626,0,0,0-.626.626V13.87H8.281a.626.626,0,0,0-.612.5L6.045,21.993H3.625a.63.63,0,0,0-.608.773l.907,3.778ZM28.2,13.869H15.644l.438-3.12H27.755ZM11.388,3.251h5.051l.478,2.528h-5.53Zm0,3.779h5.766L17.623,9.5H15.537a.626.626,0,0,0-.619.539L14.38,13.87H11.388V7.03Zm-2.6,8.091H30.092l.642,3.025H21.921a.629.629,0,0,0-.45.19l-3.537,3.656H7.325Z" transform="translate(-0.368 0)"/>
    <path id="Path_266902" data-name="Path 266902" d="M13.609,24.963c-1.1.051-2.895-.264-3.752.623a2.183,2.183,0,0,0,1.658,3.755,24.582,24.582,0,0,0,2.617-.058,2.178,2.178,0,0,0-.522-4.32Zm-2.1,3.127c-.91.023-1.5-.959-.82-1.575a1.255,1.255,0,0,1,.82-.3h2.1c.923-.034,1.493.992.815,1.578h0a1.229,1.229,0,0,1-.814.3Zm17.93,1.076a2.643,2.643,0,0,0,0,5.286,2.643,2.643,0,0,0,0-5.286Zm0,4.035a1.392,1.392,0,0,1,0-2.784A1.392,1.392,0,0,1,29.443,33.2Zm8.173,11.662a.7.7,0,0,0-.25-.5l-3.522-2.639a.626.626,0,0,0-.751,1l2.019,1.513H6.432l2.019-1.513a.626.626,0,0,0-.751-1l-3.522,2.64a.626.626,0,0,0,0,1L7.7,48a.626.626,0,0,0,.751-1L6.432,45.488h28.68L33.094,47a.626.626,0,0,0,.751,1l3.522-2.639a.7.7,0,0,0,.25-.5Zm1.313-7.788c-1.667-.04-2.747.118-2.95-1.282A.677.677,0,0,0,35.4,35.3a.654.654,0,0,0-.659.589c-.086,1.529-1.628,2.225-3.025,2.225s-2.94-.7-3.025-2.225a.64.64,0,0,0-.625-.585.188.188,0,0,0-.106.014.622.622,0,0,0-.518.571c-.085,1.528-1.628,2.225-3.025,2.225s-2.94-.7-3.025-2.225a.645.645,0,0,0-.626-.585.189.189,0,0,0-.1.014.591.591,0,0,0-.469.372c-.083,3.133-5.822,3.285-6.1.2a.645.645,0,0,0-.626-.585.177.177,0,0,0-.106.014.624.624,0,0,0-.517.571c-.085,1.529-1.628,2.225-3.025,2.225-1.42,0-2.953-.717-3.034-2.263a.624.624,0,0,0-.449-.524.645.645,0,0,0-.778.462c-.263,1.19-.691,1.242-2.457,1.272l-.493.01a.626.626,0,0,0,.031,1.251c1.225-.033,2.625.053,3.406-.761,1.562,2.358,5.721,2.407,7.421.183a4.905,4.905,0,0,0,7.3,0,4.905,4.905,0,0,0,7.3,0,4.534,4.534,0,0,0,3.649,1.621,4.439,4.439,0,0,0,3.772-1.8c.781.814,2.182.729,3.406.761a.626.626,0,0,0,.031-1.251Z" transform="translate(0 -8.593)" fill="#fe4d3b"/>
  </g>
</svg>
