<svg xmlns="http://www.w3.org/2000/svg" width="39.543" height="38.402" viewBox="0 0 39.543 38.402">
  <g id="Group_244791" data-name="Group 244791" transform="translate(-303.219 -5541.098)">
    <path id="Path_266911" data-name="Path 266911" d="M36.029,31.705H31.7a3.112,3.112,0,0,0,.283-.584,3.011,3.011,0,0,0-.927-3.375l-5.136-4.238a6.026,6.026,0,0,0-11.7-.311l-1.292-4.522a6.03,6.03,0,1,0-7.87-1.821,6.138,6.138,0,0,0-1.919,4.472v10.4C1.38,31.91,37.966,31.705,36.029,31.705Zm-10-6.258,4.122,3.4a1.613,1.613,0,0,1-1.027,2.857H20.75v-.924a6,6,0,0,0,3-1.239.716.716,0,0,0,.187.026h2.6a.715.715,0,1,0,0-1.429H25.048a5.989,5.989,0,0,0,.978-2.691ZM20.035,20.2a4.6,4.6,0,1,1-4.6,4.6A4.6,4.6,0,0,1,20.035,20.2Zm-5.014,7.939H13.533a.715.715,0,1,0,0,1.429H16a.712.712,0,0,0,.282-.058,6,6,0,0,0,3.037,1.271v.924H10.948a1.613,1.613,0,0,1-1.027-2.857l4.122-3.4A5.989,5.989,0,0,0,15.021,28.139ZM10,8.811a4.6,4.6,0,1,1-4.6,4.6,4.6,4.6,0,0,1,4.6-4.6ZM4.574,21.325a4.718,4.718,0,0,1,1.44-3.405,6.008,6.008,0,0,0,5.589,1.3l1.477,5.17-2.173,1.793-1.1-3.3a.715.715,0,0,0-1.356.451l1.272,3.828-.713.588a3.011,3.011,0,0,0-.927,3.375,3.114,3.114,0,0,0,.283.584H4.574ZM3.514,33.135h0Z" transform="translate(303.219 5533.716)"/>
    <g id="Group_244750" data-name="Group 244750" transform="translate(303.219 5533.716)">
      <path id="Path_266911-2" data-name="Path 266911" d="M36.029,31.705H31.7l-28.557.02A3.305,3.305,0,0,0,0,35.219a3.517,3.517,0,0,0,3.5,3.513v5.374a.715.715,0,0,0,1.429,0V38.733h1.8v5.622h-1.8V44.21a.715.715,0,0,0-1.429,0v.859a.715.715,0,0,0,.715.715H7.44a.715.715,0,0,0,.715-.715V44.4l11.491-5.586,11.677,5.677c.022.011.044.019.066.028v.553a.715.715,0,0,0,.715.715H35.33a.715.715,0,0,0,.715-.715V38.732a3.513,3.513,0,0,0-.016-7.027Zm-6.908,0h0Zm-9.8,0h0Zm-10.953,0h0Zm-.213,11.1V38.733h8.386Zm26.461,1.545h-1.8V38.733h1.8ZM36.029,37.3h-6.11a.715.715,0,1,0,0,1.429h1.469v4.2l-8.638-4.2h9.906a.715.715,0,1,0,0-1.429H3.514a2.084,2.084,0,0,1,0-4.169H36.029a2.084,2.084,0,0,1,0,4.169Z" fill="#fe4d3b"/>
    </g>
  </g>
</svg>
