<svg xmlns="http://www.w3.org/2000/svg" xmlns:xlink="http://www.w3.org/1999/xlink" width="55.1" height="44.599" viewBox="0 0 55.1 44.599">
  <defs>
    <clipPath id="clip-path">
      <path id="Path_266940" data-name="Path 266940" d="M-1402.69,2760.312s1.674-1.888,3.3-1.931,38.415,0,38.415,0,4.163.129,5.151,1.288a14.631,14.631,0,0,0,3.166.726l.139,15.714-7.254,4.936-39.617-.687s-6.91-3.047-7.039-3.949-.343-13.306-.343-13.306Z" transform="translate(2464 1772)" fill="none" stroke="#707070" stroke-width="1"/>
    </clipPath>
  </defs>
  <g id="Group_244791" data-name="Group 244791" transform="translate(-1057.232 -5353)">
    <path id="Union_3" data-name="Union 3" d="M2505.373,1812.774v-3.045h-30.42v3.045a1.826,1.826,0,0,1-3.651,0v-3.057a8.444,8.444,0,0,1-3.169-.5,6.67,6.67,0,0,1-3.622-3.622c-.511-1.227-.511-2.57-.511-4.995s0-3.767.511-4.994a6.675,6.675,0,0,1,1.921-2.6,86.461,86.461,0,0,1,.372-10.63c.424-3.176,1.359-5.331,3.016-6.989s3.812-2.585,6.989-3.015a89.142,89.142,0,0,1,10.923-.373h4.871a89.081,89.081,0,0,1,10.923.373c3.177.423,5.331,1.358,6.989,3.015s2.585,3.813,3.016,6.989a88.183,88.183,0,0,1,.365,10.625,6.682,6.682,0,0,1,1.928,2.606c.511,1.234.511,2.57.511,4.994s0,3.768-.511,4.995a6.675,6.675,0,0,1-3.623,3.622,8.484,8.484,0,0,1-3.175.5v3.056a1.826,1.826,0,0,1-3.651,0Zm-35.846-17.415a3.013,3.013,0,0,0-1.642,1.65,27.91,27.91,0,0,0,0,7.2,3.022,3.022,0,0,0,1.642,1.643,12.383,12.383,0,0,0,3.6.233h34.078a12.412,12.412,0,0,0,3.6-.233,3.017,3.017,0,0,0,1.643-1.643,27.823,27.823,0,0,0,0-7.2,3.021,3.021,0,0,0-1.643-1.642,12.335,12.335,0,0,0-3.6-.234h-34.078v-.007A12.369,12.369,0,0,0,2469.527,1795.359Zm2.877-17.386c-2.153,2.153-2.31,6.062-2.321,13.573.677-.06,1.464-.07,2.438-.072v-1.826c0-4.928,0-7.637,1.958-9.6s4.673-1.957,9.6-1.957h12.173c4.928,0,7.637,0,9.6,1.957s1.957,4.674,1.957,9.6v1.826c.973,0,1.756.012,2.431.071-.01-7.5-.161-11.419-2.314-13.572-2.315-2.314-6.667-2.314-15.327-2.314h-4.871C2479.064,1775.659,2474.72,1775.659,2472.4,1777.973Zm31.756,13.5v-1.825c0-4.25-.036-6.162-.891-7.017s-2.767-.891-7.016-.891h-4.265v9.733Zm-15.823,0v-9.733h-4.257c-4.25,0-6.163.037-7.017.891s-.891,2.767-.891,7.017v1.825Z" transform="translate(-1405.001 3582)" fill="#fe4d3b" stroke="#fff" stroke-width="2"/>
    <g id="Mask_Group_191878" data-name="Mask Group 191878" transform="translate(0 844)" clip-path="url(#clip-path)">
      <path id="Union_4" data-name="Union 4" d="M2505.373,1812.774v-3.045h-30.42v3.045a1.826,1.826,0,0,1-3.651,0v-3.057a8.444,8.444,0,0,1-3.169-.5,6.67,6.67,0,0,1-3.622-3.622c-.511-1.227-.511-2.57-.511-4.995s0-3.767.511-4.994a6.675,6.675,0,0,1,1.921-2.6,86.461,86.461,0,0,1,.372-10.63c.424-3.176,1.359-5.331,3.016-6.989s3.812-2.585,6.989-3.015a89.142,89.142,0,0,1,10.923-.373h4.871a89.081,89.081,0,0,1,10.923.373c3.177.423,5.331,1.358,6.989,3.015s2.585,3.813,3.016,6.989a88.183,88.183,0,0,1,.365,10.625,6.682,6.682,0,0,1,1.928,2.606c.511,1.234.511,2.57.511,4.994s0,3.768-.511,4.995a6.675,6.675,0,0,1-3.623,3.622,8.484,8.484,0,0,1-3.175.5v3.056a1.826,1.826,0,0,1-3.651,0Zm-35.846-17.415a3.013,3.013,0,0,0-1.642,1.65,27.91,27.91,0,0,0,0,7.2,3.022,3.022,0,0,0,1.642,1.643,12.383,12.383,0,0,0,3.6.233h34.078a12.412,12.412,0,0,0,3.6-.233,3.017,3.017,0,0,0,1.643-1.643,27.823,27.823,0,0,0,0-7.2,3.021,3.021,0,0,0-1.643-1.642,12.335,12.335,0,0,0-3.6-.234h-34.078v-.007A12.369,12.369,0,0,0,2469.527,1795.359Zm2.877-17.386c-2.153,2.153-2.31,6.062-2.321,13.573.677-.06,1.464-.07,2.438-.072v-1.826c0-4.928,0-7.637,1.958-9.6s4.673-1.957,9.6-1.957h12.173c4.928,0,7.637,0,9.6,1.957s1.957,4.674,1.957,9.6v1.826c.973,0,1.756.012,2.431.071-.01-7.5-.161-11.419-2.314-13.572-2.315-2.314-6.667-2.314-15.327-2.314h-4.871C2479.064,1775.659,2474.72,1775.659,2472.4,1777.973Zm31.756,13.5v-1.825c0-4.25-.036-6.162-.891-7.017s-2.767-.891-7.016-.891h-4.265v9.733Zm-15.823,0v-9.733h-4.257c-4.25,0-6.163.037-7.017.891s-.891,2.767-.891,7.017v1.825Z" transform="translate(-1405.001 2738)" fill="#101010" stroke="#fff" stroke-width="2"/>
    </g>
  </g>
</svg>
