<svg id="Group_244689" data-name="Group 244689" xmlns="http://www.w3.org/2000/svg" xmlns:xlink="http://www.w3.org/1999/xlink" width="38" height="41.639" viewBox="0 0 38 41.639">
  <defs>
    <clipPath id="clip-path">
      <path id="Path_266934" data-name="Path 266934" d="M3.753,24.2a5.122,5.122,0,0,1,1.856-.84c.86-.117.645-3.106.645-3.106l.684-3.673a18.566,18.566,0,0,1,2.291-.525c.3.033,18.688.3,18.688.3l1.684.228,1.684,1.489.363,5.291a3.382,3.382,0,0,1,2.74.983c.859,1.156,2.674-.825,2.674-.825l.825,10.07-2.179,8.056L7.578,40.417l-7.4-.462.3-14.825Z" fill="none" stroke="#707070" stroke-width="1"/>
    </clipPath>
  </defs>
  <path id="Path_266933" data-name="Path 266933" d="M38,1.226V0H0V1.226H7.968v12.05q-1.22.156-2.452.193v-.71a1.839,1.839,0,1,0-1.226,0v11.2c-1.463.849,17.755.014,29.419,0v-11.2a1.839,1.839,0,1,0-1.226,0v.71q-1.23-.037-2.452-.193V1.226Zm-18.8,4.9.735,1.839H18.066L18.8,6.129Zm-10-4.9h9.194V2.452H12.871V5.016a1.839,1.839,0,1,0,1.226,0V3.677h4.29V4.9h-.415l-1.716,4.29h5.487L20.027,4.9h-.414V3.677H23.9V5.016a1.839,1.839,0,1,0,1.226,0V2.452H19.613V1.226h9.194V13.093a24.617,24.617,0,0,1-4.377-1.149c-.222-.083-.473-.184-.742-.293A13.4,13.4,0,0,0,19,10.419a13.4,13.4,0,0,0-4.687,1.232c-.27.108-.52.209-.742.293a24.617,24.617,0,0,1-4.377,1.149Zm4.9,5.516a.613.613,0,1,1-.613-.613A.614.614,0,0,1,14.1,6.742Zm10.419-.613a.613.613,0,1,1-.613.613A.614.614,0,0,1,24.516,6.129ZM4.9,10.419a.613.613,0,1,1-.613.613A.614.614,0,0,1,4.9,10.419Zm28.194,0a.613.613,0,1,1-.613.613A.614.614,0,0,1,33.1,10.419Zm-.613,4.275v8.758c-.393-.1-26.575-.1-26.968,0V14.694A27.786,27.786,0,0,0,14,13.092c.232-.087.49-.191.77-.3A12.492,12.492,0,0,1,19,11.645a12.492,12.492,0,0,1,4.229,1.143c.28.113.539.217.77.3A27.8,27.8,0,0,0,32.484,14.694Z" fill="#fe4d3b"/>
  <g id="Mask_Group_191877" data-name="Mask Group 191877" clip-path="url(#clip-path)">
    <path id="Path_266928" data-name="Path 266928" d="M38,1.226V0H0V1.226H7.968v12.05q-1.22.156-2.452.193v-.71a1.839,1.839,0,1,0-1.226,0v11.2a4.9,4.9,0,0,0-2.452,4.239,1.227,1.227,0,0,0,1.226,1.226h.613v1.226H3.065v4.9h1.36L5.037,38H9.672l.612-2.452h17.43L28.327,38h4.635l.612-2.452h1.362v-4.9h-.613V29.419h.613a1.227,1.227,0,0,0,1.226-1.226,4.9,4.9,0,0,0-2.452-4.24v-11.2a1.839,1.839,0,1,0-1.226,0v.71q-1.23-.037-2.452-.193V1.226Zm-18.8,4.9.735,1.839H18.066L18.8,6.129Zm-10-4.9h9.194V2.452H12.871V5.016a1.839,1.839,0,1,0,1.226,0V3.677h4.29V4.9h-.415l-1.716,4.29h5.487L20.027,4.9h-.414V3.677H23.9V5.016a1.839,1.839,0,1,0,1.226,0V2.452H19.613V1.226h9.194V13.093a24.617,24.617,0,0,1-4.377-1.149c-.222-.083-.473-.184-.742-.293A13.4,13.4,0,0,0,19,10.419a13.4,13.4,0,0,0-4.687,1.232c-.27.108-.52.209-.742.293a24.617,24.617,0,0,1-4.377,1.149Zm4.9,5.516a.613.613,0,1,1-.613-.613A.614.614,0,0,1,14.1,6.742Zm10.419-.613a.613.613,0,1,1-.613.613A.614.614,0,0,1,24.516,6.129ZM4.9,10.419a.613.613,0,1,1-.613.613A.614.614,0,0,1,4.9,10.419ZM8.715,36.774H5.995l-.307-1.226H9.021Zm23.29,0h-2.72l-.307-1.226h3.334Zm1.7-2.452H4.29V31.871H30.645V30.645H4.9V28.806a1.841,1.841,0,0,1,1.839-1.839H31.258A1.841,1.841,0,0,1,33.1,28.806v1.839H31.871v1.226H33.71Zm-.613-23.9a.613.613,0,1,1-.613.613A.614.614,0,0,1,33.1,10.419Zm1.839,17.774h-.675a3.07,3.07,0,0,0-3-2.452H6.742a3.07,3.07,0,0,0-3,2.452H3.065a3.681,3.681,0,0,1,3.677-3.677H31.258A3.681,3.681,0,0,1,34.935,28.194ZM8.581,23.29V19a.389.389,0,0,1,.549-.339l1.29.645.273-.136a5.747,5.747,0,0,1,2.178-.549,5.747,5.747,0,0,1,2.178.549l.275.136,1.29-.645a.389.389,0,0,1,.548.339v4.29Zm12.258,0V19a.389.389,0,0,1,.549-.339l1.29.645.273-.136a5.747,5.747,0,0,1,2.178-.549,5.747,5.747,0,0,1,2.178.549l.275.136,1.29-.645a.389.389,0,0,1,.548.339v4.29Zm11.645-8.6v8.758a4.847,4.847,0,0,0-1.226-.162h-.613V19a1.605,1.605,0,0,0-2.322-1.435l-.756.378a6.683,6.683,0,0,0-2.438-.548,6.683,6.683,0,0,0-2.438.548l-.756-.378A1.605,1.605,0,0,0,19.613,19v4.29H18.387V19a1.605,1.605,0,0,0-2.322-1.435l-.756.378a6.683,6.683,0,0,0-2.438-.548,6.683,6.683,0,0,0-2.438.548l-.756-.378A1.605,1.605,0,0,0,7.355,19v4.29H6.742a4.874,4.874,0,0,0-1.226.161V14.694A27.786,27.786,0,0,0,14,13.092c.232-.087.49-.191.77-.3A12.492,12.492,0,0,1,19,11.645a12.492,12.492,0,0,1,4.229,1.143c.28.113.539.217.77.3A27.8,27.8,0,0,0,32.484,14.694Z"/>
  </g>
</svg>
