<svg id="Group_243476" data-name="Group 243476" xmlns="http://www.w3.org/2000/svg" width="223.472" height="35.165" viewBox="0 0 223.472 35.165">
  <g id="Group_191875" data-name="Group 191875">
    <path id="Path_183803" data-name="Path 183803" d="M608.972,51.715a23.576,23.576,0,0,0-2.471-.565c-1.39-.172-2.077-.786-1.783-2.262a7.2,7.2,0,0,0,.012-1.3c1.207.4,2.281.823,3.394,1.1,4.828,1.211,7.155-.563,7.291-5.513.015-.537,0-1.074,0-2.065a6.083,6.083,0,0,1-4.466,2.874c-2.746.245-5.059-.6-6.5-3-2.58-4.313-2.531-8.83-.532-13.34a6.738,6.738,0,0,1,11.391-1.345c.074-.667.136-1.232.209-1.891h3.152v1.527c0,5.355.018,10.71-.015,16.065a20.259,20.259,0,0,1-.321,3.609,6.817,6.817,0,0,1-5.94,5.829c-.339.061-.669.178-1,.268h-2.425m6.552-17.926a18.025,18.025,0,0,0-1.081-4.926,3.508,3.508,0,0,0-3.4-2.329,3.807,3.807,0,0,0-3.91,2.056,11.768,11.768,0,0,0,0,10.629,3.842,3.842,0,0,0,3.894,2.115,3.572,3.572,0,0,0,3.476-2.476,17.636,17.636,0,0,0,1.028-4.818" transform="translate(-419.809 -16.55)" fill="#fff"/>
    <path id="Path_183804" data-name="Path 183804" d="M0,22.093a28.572,28.572,0,0,1,2.61-1.958c3.642-2.156,7.356-4.189,10.968-6.393a3.619,3.619,0,0,1,4.461.052c.728.526,1.546.928,2.765,1.647L4.6,24.834l16.265,9.429a50.536,50.536,0,0,1-4.552,2.368,2.689,2.689,0,0,1-1.992-.344Q7.874,32.652,1.5,28.871A7.8,7.8,0,0,1,0,27.246V22.093" transform="translate(0 -9.057)" fill="#fe4d3b"/>
    <path id="Path_183805" data-name="Path 183805" d="M439.754,0q.032,12.938.064,25.877c0,.4,0,.8,0,1.325h-3.083c-.057-.558-.115-1.131-.154-1.518a21.664,21.664,0,0,1-3.889,1.98,6.227,6.227,0,0,1-7.075-2.847,14.025,14.025,0,0,1-.319-14.025c2.255-4.325,7.493-4.817,10.9-1.285.057.059.174.061.528.175V0Zm-3.032,17.491a17.418,17.418,0,0,0-1.071-5.015,4.162,4.162,0,0,0-7.666.081,13.809,13.809,0,0,0-.023,9.9,3.852,3.852,0,0,0,3.856,2.648,3.8,3.8,0,0,0,3.873-2.613,16.417,16.417,0,0,0,1.043-5" transform="translate(-295.154)" fill="#fff"/>
    <path id="Path_183806" data-name="Path 183806" d="M514.483,0V4.121H511.24q.105-2.064.211-4.121Z" transform="translate(-356.241)" fill="#fff"/>
    <path id="Path_183807" data-name="Path 183807" d="M668.438,15.34a28.44,28.44,0,0,1,3.852-2.113,3.265,3.265,0,0,1,2.419.232c4.32,2.4,8.61,4.852,12.82,7.433a3.381,3.381,0,0,1,1.411,2.4c.089,5.471.643,4.465-3.846,7.082-3.31,1.929-6.655,3.8-9.94,5.77a3.237,3.237,0,0,1-3.8,0c-1-.658-2.054-1.224-3.262-1.935l3.721-3.173c.275.469.427,1.082.777,1.232a1.586,1.586,0,0,0,1.4-.217c1.681-1.525,3.329-3.093,4.892-4.738a3.873,3.873,0,0,1,3.217-1.28,10.659,10.659,0,0,0,2.814-.371,1.207,1.207,0,0,0,.681-.837c.036-.191-.388-.634-.659-.687a14.919,14.919,0,0,0-3.114-.395,3.489,3.489,0,0,1-2.9-1.274c-1.54-1.735-3.173-3.389-4.783-5.061-1.017-1.056-1.794-.816-2.311.8l-3.381-2.874" transform="translate(-465.535 -9.122)" fill="#fe4d3b"/>
    <path id="Path_183808" data-name="Path 183808" d="M199.293,31.447c.1-3.4-1.237-5.009-4.338-4.86a56.873,56.873,0,0,0-7.069,1.2V25.134a15.012,15.012,0,0,1,10.078-.873c2.523.754,4.334,2.455,4.434,5.161.176,4.728.049,9.466.049,14.323H199.43c-.037-.737-.072-1.429-.126-2.506a7.369,7.369,0,0,1-5.013,3.093c-5.106.766-8.608-2.656-7.746-7.634a5.171,5.171,0,0,1,3.714-4.367,30.037,30.037,0,0,1,5.339-.86,36.338,36.338,0,0,1,3.7-.023m-.062,2.441a61.2,61.2,0,0,0-6.672.52,3.444,3.444,0,0,0-2.9,4.244c.292,1.888,1.752,3.021,3.916,3.038,3.759.03,6.061-2.981,5.658-7.8" transform="translate(-129.897 -16.541)" fill="#fff"/>
    <path id="Path_183809" data-name="Path 183809" d="M382.539,34.159c-.142,1.212-.2,2.429-.437,3.609-.867,4.3-3.663,6.663-7.88,6.731-4.38.071-7.355-2.091-8.133-6.51a22.4,22.4,0,0,1,0-7.624c.785-4.461,3.661-6.543,8.117-6.494,4.243.046,7.005,2.354,7.9,6.683.243,1.179.3,2.4.441,3.6m-13.742.264a14.161,14.161,0,0,0,1.175,4.688,3.954,3.954,0,0,0,4.033,2.63,4.051,4.051,0,0,0,4.075-2.59,13.026,13.026,0,0,0-.016-10.009,3.988,3.988,0,0,0-3.946-2.53,3.911,3.911,0,0,0-4.093,2.5,14.5,14.5,0,0,0-1.228,4.929" transform="translate(-254.868 -16.633)" fill="#fff"/>
    <path id="Path_183810" data-name="Path 183810" d="M562.362,43.9h-3.137c0-.574,0-1.106,0-1.637-.007-3.688.024-7.376-.034-11.063-.046-2.925-1.175-4.364-3.4-4.542-2.516-.2-4.364,1.22-4.819,3.986a34.954,34.954,0,0,0-.274,5.125c-.041,2.666-.011,5.334-.011,8.091h-3.157V24.388h3.1c.036.783.069,1.518.117,2.549a6.628,6.628,0,0,1,5.443-3.07c3.4-.042,5.476,1.556,5.989,4.916a38.487,38.487,0,0,1,.312,5.278c.042,3.131,0,6.263-.006,9.4a2.5,2.5,0,0,1-.123.449" transform="translate(-381.531 -16.63)" fill="#fff"/>
    <path id="Path_183811" data-name="Path 183811" d="M94.926,29.765v2.415a48.315,48.315,0,0,1-6.208-.052c-2.672-.352-3.931-1.755-4.085-4.459-.2-3.474-.146-6.963-.2-10.445-.009-.593,0-1.186,0-1.948H79.275V12.727h5.134V7.254h3.257v5.439H94.92v2.565H87.751c0,4.054-.086,7.931.039,11.8.056,1.754.927,2.51,2.718,2.677,1.436.134,2.9.027,4.418.027" transform="translate(-55.24 -5.055)" fill="#fff"/>
    <path id="Path_183812" data-name="Path 183812" d="M262.183,25.3c-.52,1.513-.98,2.886-1.465,4.251-1.671,4.7-3.37,9.395-5.007,14.109-.287.828-.627,1.2-1.574,1.192-3-.013-3,.033-4.025-2.852Q247.4,34.373,244.7,26.749c-.164-.462-.294-.936-.5-1.6a19.793,19.793,0,0,0,2.08-.014c.926-.1,1.31.29,1.6,1.155,1.525,4.539,3.121,9.055,4.7,13.577.156.449.335.89.632,1.674.568-1.589,1.029-2.847,1.469-4.113q1.711-4.928,3.407-9.862c.918-2.662.917-2.662,4.105-2.268" transform="translate(-170.159 -17.496)" fill="#fff"/>
    <path id="Path_183813" data-name="Path 183813" d="M323.953,39.661c.268,3.53.683,3.438-2.92,4.305-7.6,1.829-13.145-3.672-12.044-11.729.882-6.457,5.886-9.906,12.2-8.208,3.41.917,3.027.713,2.806,3.794a30.663,30.663,0,0,0-5.357-1.339,5.209,5.209,0,0,0-5.889,4.5,15.485,15.485,0,0,0,.005,5.967c.943,4.317,5.648,5.954,9.8,3.627.433-.243.834-.542,1.4-.915" transform="translate(-215.212 -16.444)" fill="#fff"/>
    <path id="Path_183814" data-name="Path 183814" d="M500.025,42.937h6.334v2.311H490.487v-2.34h6.232V28.367h-4.834V25.907h8.139Z" transform="translate(-341.78 -18.052)" fill="#fff"/>
    <path id="Path_183815" data-name="Path 183815" d="M143.546,43.772H140.39V24.264h3.087v3.177a7.066,7.066,0,0,0,.666-.641,7,7,0,0,1,7.843-2.814c2.144.571,2.235.688,2.22,2.859,0,.351,0,.7,0,1.136a20.15,20.15,0,0,0-2.992-1.1c-4.284-.851-7.4,1.574-7.594,5.971-.132,2.973-.057,5.956-.073,8.934,0,.6,0,1.2,0,1.989" transform="translate(-97.826 -16.517)" fill="#fff"/>
  </g>
</svg>
